<?xml version="1.0" encoding="UTF-8"?>
<svg id="LOGOS" xmlns="http://www.w3.org/2000/svg" version="1.1" viewBox="0 0 478.9 452.8">
  <!-- Generator: Adobe Illustrator 29.2.0, SVG Export Plug-In . SVG Version: 2.1.0 Build 108)  -->
  <defs>
    <style>
      .st0 {
        fill: #b8bac2;
      }

      .st1 {
        fill: #fc1fad;
      }

      .st2 {
        fill: #99126b;
      }

      .st3 {
        fill: #6f6f6e;
      }
    </style>
  </defs>
  <g>
    <g>
      <path class="st3" d="M114.3,299.6c.4,0,.8-.1,1.1-.4.3-.3.5-.7.5-1.1v-21.5l17.1,22.5c.1.2.3.3.6.4s.4.1.7.1c.4,0,.8-.1,1.1-.4.3-.3.5-.7.5-1.1v-25.5c0-.5-.2-.8-.5-1.1-.3-.3-.7-.4-1.1-.4s-.8.1-1.1.4c-.3.3-.4.7-.4,1.1v21.5l-17.1-22.5c-.3-.4-.7-.6-1.2-.6s-.8.1-1.1.4-.4.7-.4,1.1v25.5c0,.5.1.8.4,1.1s.7.4,1.1.4Z"/>
      <path class="st3" d="M142.4,299.6c.3,0,.6,0,.8-.2.3-.2.5-.4.6-.7l2.4-5.7h13.9l2.3,5.7c.1.3.4.5.6.7.3.2.6.3.9.3.6,0,1-.2,1.3-.7.3-.5.3-1,0-1.5l-10.7-25.3c-.3-.7-.8-1.1-1.5-1.1s-1.2.4-1.5,1.1l-10.6,25.3c-.2.5-.2,1,0,1.5s.7.8,1.3.8ZM153.1,276.1l5.8,14.2h-11.7l5.9-14.2Z"/>
      <path class="st3" d="M165.7,273.9h8.4v24.2c0,.4.2.8.5,1.1.3.3.7.5,1.1.5s.8-.2,1.1-.5c.3-.3.4-.7.4-1.1v-24.2h8.5c.4,0,.8-.1,1.1-.4s.4-.6.4-1-.1-.8-.4-1.1-.6-.4-1.1-.4h-20.1c-.4,0-.8.1-1.1.4-.3.3-.4.6-.4,1.1s.1.8.4,1c.3.3.6.4,1.1.4Z"/>
      <path class="st3" d="M194.5,299.6c.5,0,.8-.1,1.1-.4.3-.3.4-.7.4-1.1v-25.5c0-.5-.1-.8-.4-1.1-.3-.3-.7-.4-1.1-.4s-.8.1-1.1.4-.4.7-.4,1.1v25.5c0,.5.1.8.4,1.1s.7.4,1.1.4Z"/>
      <path class="st3" d="M206.9,295.9c1.3,1.3,2.9,2.3,4.6,3.1,1.8.7,3.7,1.1,5.9,1.1s4.1-.4,5.8-1.1c1.8-.7,3.3-1.8,4.6-3.1s2.3-2.9,3-4.7c.7-1.8,1.1-3.8,1.1-5.9s-.4-4.1-1.1-5.9c-.7-1.8-1.7-3.3-3-4.6s-2.9-2.3-4.6-3.1c-1.8-.7-3.7-1.1-5.8-1.1s-4.1.4-5.9,1.1c-1.8.7-3.3,1.8-4.6,3.1s-2.3,2.9-3,4.6c-.7,1.8-1.1,3.7-1.1,5.9s.4,4.1,1.1,5.9c.7,1.8,1.7,3.3,3,4.7ZM206.7,280.7c.6-1.4,1.4-2.7,2.4-3.7,1-1.1,2.2-1.9,3.7-2.5,1.4-.6,3-.9,4.6-.9s3.2.3,4.6.9c1.4.6,2.6,1.4,3.7,2.5,1,1.1,1.8,2.3,2.4,3.7.6,1.4.8,3,.8,4.6s-.3,3.2-.8,4.6c-.6,1.4-1.4,2.7-2.4,3.7-1,1.1-2.3,1.9-3.7,2.5-1.4.6-2.9.9-4.6.9s-3.2-.3-4.6-.9c-1.4-.6-2.6-1.4-3.7-2.5-1-1.1-1.8-2.3-2.4-3.7-.6-1.4-.9-3-.9-4.6s.3-3.2.9-4.6Z"/>
      <path class="st3" d="M239.5,299.6c.4,0,.8-.1,1.1-.4.3-.3.5-.7.5-1.1v-21.5l17.1,22.5c.1.2.3.3.6.4s.4.1.7.1c.4,0,.8-.1,1.1-.4.3-.3.5-.7.5-1.1v-25.5c0-.5-.2-.8-.5-1.1-.3-.3-.7-.4-1.1-.4s-.8.1-1.1.4c-.3.3-.4.7-.4,1.1v21.5l-17.1-22.5c-.3-.4-.7-.6-1.2-.6s-.8.1-1.1.4-.4.7-.4,1.1v25.5c0,.5.1.8.4,1.1s.7.4,1.1.4Z"/>
      <path class="st3" d="M267.6,299.6c.3,0,.6,0,.8-.2.3-.2.5-.4.6-.7l2.4-5.7h13.9l2.3,5.7c.1.3.4.5.6.7.3.2.6.3.9.3.6,0,1-.2,1.3-.7.3-.5.3-1,0-1.5l-10.7-25.3c-.3-.7-.8-1.1-1.5-1.1s-1.2.4-1.5,1.1l-10.6,25.3c-.2.5-.2,1,0,1.5s.7.8,1.3.8ZM278.4,276.1l5.8,14.2h-11.7l5.9-14.2Z"/>
      <path class="st3" d="M297.1,299.6h15.6c.4,0,.8-.1,1.1-.4.3-.3.5-.7.5-1.1s-.2-.8-.5-1.1-.7-.4-1.1-.4h-14v-24c0-.4-.2-.8-.5-1.1-.3-.3-.7-.5-1.1-.5s-.8.2-1.1.5c-.3.3-.5.7-.5,1.1v25.5c0,.5.2.8.5,1.1.3.3.7.4,1.1.4Z"/>
      <path class="st3" d="M321.2,299.6h17c.4,0,.8-.1,1.1-.4.3-.3.4-.6.4-1.1s-.1-.8-.4-1c-.3-.3-.7-.4-1.1-.4h-15.4v-9.9h11.2c.5,0,.8-.1,1.1-.4.3-.3.4-.6.4-1.1s-.1-.8-.4-1.1-.7-.4-1.1-.4h-11.2v-9.8h15.4c.4,0,.8-.1,1.1-.4.3-.3.4-.6.4-1s-.1-.8-.4-1.1c-.3-.3-.7-.4-1.1-.4h-17c-.5,0-.8.1-1.1.4s-.4.7-.4,1.1v25.5c0,.5.1.8.4,1.1s.7.4,1.1.4Z"/>
      <path class="st3" d="M363.7,295.3c.5-1,.8-2.2.8-3.6,0-2.3-.8-4.2-2.3-5.7-1.5-1.4-3.8-2.4-6.8-2.8-1.8-.2-3.1-.6-4.2-1.1-1-.5-1.7-1.1-2.2-1.8-.4-.7-.6-1.4-.6-2.2,0-1.5.6-2.7,1.8-3.5,1.2-.8,2.7-1.2,4.6-1.2,1.1,0,2,.2,2.8.5.8.3,1.4.7,2,1.2s1,1,1.4,1.6c.2.4.5.7,1,.8.4.1.8.1,1.2,0,.4-.2.6-.5.7-.9,0-.4,0-.8-.3-1.3-.5-.9-1.2-1.7-2-2.4-.8-.7-1.8-1.3-2.9-1.7-1.1-.4-2.3-.6-3.7-.6s-3.5.3-4.9.9c-1.4.6-2.6,1.5-3.4,2.6s-1.2,2.4-1.2,3.9.8,3.9,2.5,5.4c1.7,1.4,3.9,2.3,6.8,2.7,2.3.3,4.1.9,5.1,2,1.1,1.1,1.6,2.3,1.6,3.7s-.3,2.1-.9,2.9c-.6.8-1.4,1.4-2.4,1.8-1,.4-2.1.6-3.4.6s-2.2-.2-3.1-.5c-1-.3-1.8-.7-2.5-1.3s-1.2-1.2-1.6-1.9c-.2-.4-.4-.7-.8-.9s-.7-.2-1.1-.1c-.5.1-.8.4-1,.7-.2.4-.2.8,0,1.2.5,1.1,1.2,2.1,2.2,3,1,.8,2.2,1.5,3.5,2s2.8.7,4.4.7,2.6-.2,3.8-.5c1.2-.4,2.2-.9,3.1-1.6.9-.7,1.6-1.6,2.1-2.6Z"/>
    </g>
    <g>
      <path class="st3" d="M90.2,313.7c-.5,0-.8.1-1.1.4-.3.3-.4.7-.4,1.1v11.2h-17.6v-11.2c0-.5-.1-.8-.4-1.1-.3-.3-.7-.4-1.1-.4s-.8.1-1.1.4-.4.7-.4,1.1v25.5c0,.5.1.8.4,1.1s.7.4,1.1.4.8-.1,1.1-.4c.3-.3.4-.7.4-1.1v-11.5h17.6v11.5c0,.5.1.8.4,1.1.3.3.7.4,1.1.4s.8-.1,1.1-.4.4-.7.4-1.1v-25.5c0-.5-.1-.8-.4-1.1s-.7-.4-1.1-.4Z"/>
      <path class="st3" d="M122,317.5c-1.3-1.3-2.9-2.3-4.6-3.1-1.8-.7-3.7-1.1-5.8-1.1s-4.1.4-5.9,1.1c-1.8.7-3.3,1.8-4.6,3.1s-2.3,2.9-3,4.6c-.7,1.8-1.1,3.7-1.1,5.9s.4,4.1,1.1,5.9c.7,1.8,1.7,3.3,3,4.7s2.9,2.3,4.6,3.1c1.8.7,3.7,1.1,5.9,1.1s4.1-.4,5.8-1.1c1.8-.7,3.3-1.8,4.6-3.1s2.3-2.9,3-4.7c.7-1.8,1.1-3.8,1.1-5.9s-.4-4.1-1.1-5.9c-.7-1.8-1.7-3.3-3-4.6ZM122.2,332.6c-.6,1.4-1.4,2.7-2.4,3.7-1,1.1-2.3,1.9-3.7,2.5-1.4.6-2.9.9-4.6.9s-3.2-.3-4.6-.9c-1.4-.6-2.6-1.4-3.7-2.5-1-1.1-1.8-2.3-2.4-3.7-.6-1.4-.9-3-.9-4.6s.3-3.2.9-4.6c.6-1.4,1.4-2.7,2.4-3.7,1-1.1,2.2-1.9,3.7-2.5,1.4-.6,3-.9,4.6-.9s3.2.3,4.6.9c1.4.6,2.6,1.4,3.7,2.5,1,1.1,1.8,2.3,2.4,3.7.6,1.4.8,3,.8,4.6s-.3,3.2-.8,4.6Z"/>
      <path class="st3" d="M149.7,341.9c1.5-.5,2.9-1.3,4.2-2.4.1-.2.3-.4.3-.6,0-.2.1-.4.1-.6,0-.4-.1-.8-.4-1s-.6-.4-.9-.5c-.4,0-.7,0-1,.3-1.1.8-2.2,1.4-3.4,1.9-1.2.4-2.4.7-3.7.7s-3-.3-4.3-.9-2.5-1.5-3.6-2.5c-1-1.1-1.8-2.3-2.4-3.7-.6-1.4-.9-2.9-.9-4.6s.3-3.1.9-4.5,1.4-2.7,2.4-3.7,2.2-1.9,3.6-2.5c1.4-.6,2.8-.9,4.3-.9s2.8.2,3.9.6c1.1.4,2.1,1,3,1.9.3.2.6.4,1,.4s.6,0,.8-.2.4-.4.4-.6c.1-.1.2-.3.3-.5,0-.2,0-.4,0-.6,0-.2-.2-.4-.4-.6-1.3-1.1-2.7-1.9-4.1-2.4s-3-.8-4.8-.8-3.9.4-5.6,1.2-3.2,1.8-4.5,3.2c-1.3,1.3-2.3,2.9-3,4.7-.7,1.8-1.1,3.7-1.1,5.7s.4,4,1.1,5.7,1.7,3.3,3,4.7c1.3,1.3,2.8,2.4,4.5,3.2,1.7.8,3.6,1.1,5.6,1.1s3.3-.3,4.8-.8Z"/>
      <path class="st3" d="M181.9,340.8c0,.5.1.8.4,1.1.3.3.7.4,1.1.4s.8-.1,1.1-.4.4-.7.4-1.1v-25.5c0-.5-.1-.8-.4-1.1s-.7-.4-1.1-.4-.8.1-1.1.4c-.3.3-.4.7-.4,1.1v11.2h-17.6v-11.2c0-.5-.1-.8-.4-1.1-.3-.3-.7-.4-1.1-.4s-.8.1-1.1.4-.4.7-.4,1.1v25.5c0,.5.1.8.4,1.1s.7.4,1.1.4.8-.1,1.1-.4c.3-.3.4-.7.4-1.1v-11.5h17.6v11.5Z"/>
      <path class="st3" d="M193.2,342.3h15.6c.4,0,.8-.1,1.1-.4.3-.3.5-.7.5-1.1s-.2-.8-.5-1.1-.7-.4-1.1-.4h-14v-24c0-.4-.2-.8-.5-1.1-.3-.3-.7-.5-1.1-.5s-.8.2-1.1.5c-.3.3-.5.7-.5,1.1v25.5c0,.5.2.8.5,1.1.3.3.7.4,1.1.4Z"/>
      <path class="st3" d="M235.4,341.9c.3-.3.4-.6.4-1.1s-.1-.8-.4-1c-.3-.3-.7-.4-1.1-.4h-15.4v-9.9h11.2c.5,0,.8-.1,1.1-.4.3-.3.4-.6.4-1.1s-.1-.8-.4-1.1-.7-.4-1.1-.4h-11.2v-9.8h15.4c.4,0,.8-.1,1.1-.4.3-.3.4-.6.4-1s-.1-.8-.4-1.1c-.3-.3-.7-.4-1.1-.4h-17c-.5,0-.8.1-1.1.4s-.4.7-.4,1.1v25.5c0,.5.1.8.4,1.1s.7.4,1.1.4h17c.4,0,.8-.1,1.1-.4Z"/>
      <path class="st3" d="M242.3,314.1c-.3.3-.4.7-.4,1.1v25.5c0,.5.1.8.4,1.1s.7.4,1.1.4.8-.1,1.1-.4c.3-.3.4-.7.4-1.1v-25.5c0-.5-.1-.8-.4-1.1-.3-.3-.7-.4-1.1-.4s-.8.1-1.1.4Z"/>
      <path class="st3" d="M257.6,342c1.4.5,2.8.7,4.4.7s2.6-.2,3.8-.5c1.2-.4,2.2-.9,3.1-1.6.9-.7,1.6-1.6,2.1-2.6.5-1,.8-2.2.8-3.6,0-2.3-.8-4.2-2.3-5.7-1.5-1.4-3.8-2.4-6.8-2.8-1.8-.2-3.1-.6-4.2-1.1-1-.5-1.7-1.1-2.2-1.8-.4-.7-.6-1.4-.6-2.2,0-1.5.6-2.7,1.8-3.5,1.2-.8,2.7-1.2,4.6-1.2,1.1,0,2,.2,2.8.5.8.3,1.4.7,2,1.2s1,1,1.4,1.6c.2.4.5.7,1,.8.4.1.8.1,1.2,0,.4-.2.6-.5.7-.9,0-.4,0-.8-.3-1.3-.5-.9-1.2-1.7-2-2.4-.8-.7-1.8-1.3-2.9-1.7-1.1-.4-2.3-.6-3.7-.6s-3.5.3-4.9.9c-1.4.6-2.6,1.5-3.4,2.6s-1.2,2.4-1.2,3.9.8,3.9,2.5,5.4c1.7,1.4,3.9,2.3,6.8,2.7,2.3.3,4.1.9,5.1,2,1.1,1.1,1.6,2.3,1.6,3.7s-.3,2.1-.9,2.9c-.6.8-1.4,1.4-2.4,1.8-1,.4-2.1.6-3.4.6s-2.2-.2-3.1-.5c-1-.3-1.8-.7-2.5-1.3s-1.2-1.2-1.6-1.9c-.2-.4-.4-.7-.8-.9s-.7-.2-1.1-.1c-.5.1-.8.4-1,.7-.2.4-.2.8,0,1.2.5,1.1,1.2,2.1,2.2,3,1,.8,2.2,1.5,3.5,2Z"/>
      <path class="st3" d="M286.4,341.9c.3-.3.4-.7.4-1.1v-24.2h8.5c.4,0,.8-.1,1.1-.4s.4-.6.4-1-.1-.8-.4-1.1-.6-.4-1.1-.4h-20.1c-.4,0-.8.1-1.1.4-.3.3-.4.6-.4,1.1s.1.8.4,1c.3.3.6.4,1.1.4h8.4v24.2c0,.4.2.8.5,1.1.3.3.7.5,1.1.5s.8-.2,1.1-.5Z"/>
      <path class="st3" d="M320,341.6c1.7-.9,3.1-2,4-3.6s1.5-3.3,1.5-5.2v-17.6c0-.5-.1-.8-.4-1.1-.3-.3-.7-.4-1.2-.4s-.8.1-1.1.4c-.3.3-.5.7-.5,1.1v17.6c0,1.4-.4,2.7-1.1,3.7-.7,1.1-1.7,1.9-2.9,2.5-1.2.6-2.7.9-4.3.9s-3.1-.3-4.4-.9c-1.3-.6-2.3-1.5-3-2.5-.7-1.1-1.1-2.3-1.1-3.7v-17.6c0-.5-.1-.8-.4-1.1-.3-.3-.7-.4-1.1-.4s-.8.1-1.1.4-.4.7-.4,1.1v17.6c0,2,.5,3.7,1.5,5.2,1,1.5,2.3,2.7,4.1,3.6,1.8.9,3.8,1.3,6,1.3s4.2-.4,5.9-1.3Z"/>
      <path class="st3" d="M354.2,313.7c-.5,0-.8.1-1.1.4-.3.3-.4.7-.4,1.1v21.5l-17.1-22.5c-.3-.4-.7-.6-1.2-.6s-.8.1-1.1.4-.4.7-.4,1.1v25.5c0,.5.1.8.4,1.1s.7.4,1.1.4.8-.1,1.1-.4c.3-.3.5-.7.5-1.1v-21.5l17.1,22.5c.1.2.3.3.6.4s.4.1.7.1c.4,0,.8-.1,1.1-.4.3-.3.5-.7.5-1.1v-25.5c0-.5-.2-.8-.5-1.1-.3-.3-.7-.4-1.1-.4Z"/>
      <path class="st3" d="M383.9,327.8h-7c-.4,0-.8.1-1.1.4-.3.3-.5.6-.5,1s.2.8.5,1,.7.4,1.1.4h5.5v7.1c-.9.6-1.8,1-2.7,1.4-1.2.4-2.4.7-3.7.7s-3-.3-4.3-.9-2.5-1.5-3.6-2.5c-1-1.1-1.8-2.3-2.4-3.7-.6-1.4-.9-2.9-.9-4.6s.3-3.1.9-4.5,1.4-2.7,2.4-3.7,2.2-1.9,3.6-2.5c1.4-.6,2.8-.9,4.3-.9s2.8.2,3.9.6c1.1.4,2.1,1,3,1.9.3.2.6.4.9.4s.6,0,.8-.2.4-.4.4-.6c.1-.1.2-.3.3-.5,0-.2,0-.4,0-.6,0-.2-.2-.4-.4-.6-1.3-1.1-2.7-1.9-4.1-2.4s-3-.8-4.8-.8-3.9.4-5.6,1.2-3.2,1.8-4.5,3.2c-1.3,1.3-2.3,2.9-3,4.7-.7,1.8-1.1,3.7-1.1,5.7s.4,4,1.1,5.7,1.7,3.3,3,4.7,2.8,2.4,4.5,3.2c1.7.8,3.6,1.1,5.6,1.1s3.3-.2,4.8-.7c1.5-.5,2.9-1.3,4.2-2.4.2-.2.3-.4.3-.6,0-.2,0-.4,0-.6v-9c0-.5-.1-.8-.4-1.1s-.7-.4-1.1-.4Z"/>
      <path class="st3" d="M408.5,328.8c-1.5-1.4-3.8-2.4-6.8-2.8-1.8-.2-3.1-.6-4.2-1.1-1-.5-1.7-1.1-2.2-1.8-.4-.7-.6-1.4-.6-2.2,0-1.5.6-2.7,1.8-3.5,1.2-.8,2.7-1.2,4.6-1.2,1.1,0,2,.2,2.8.5.8.3,1.4.7,2,1.2s1,1,1.4,1.6c.2.4.5.7,1,.8.4.1.8.1,1.2,0,.4-.2.6-.5.7-.9,0-.4,0-.8-.3-1.3-.5-.9-1.2-1.7-2-2.4-.8-.7-1.8-1.3-2.9-1.7-1.1-.4-2.3-.6-3.7-.6s-3.5.3-4.9.9c-1.4.6-2.6,1.5-3.4,2.6s-1.2,2.4-1.2,3.9.8,3.9,2.5,5.4c1.7,1.4,3.9,2.3,6.8,2.7,2.3.3,4.1.9,5.1,2,1.1,1.1,1.6,2.3,1.6,3.7s-.3,2.1-.9,2.9c-.6.8-1.4,1.4-2.4,1.8-1,.4-2.1.6-3.4.6s-2.2-.2-3.1-.5c-1-.3-1.8-.7-2.5-1.3s-1.2-1.2-1.6-1.9c-.2-.4-.4-.7-.8-.9s-.7-.2-1.1-.1c-.5.1-.8.4-1,.7-.2.4-.2.8,0,1.2.5,1.1,1.2,2.1,2.2,3,1,.8,2.2,1.5,3.5,2s2.8.7,4.4.7,2.6-.2,3.8-.5c1.2-.4,2.2-.9,3.1-1.6.9-.7,1.6-1.6,2.1-2.6.5-1,.8-2.2.8-3.6,0-2.3-.8-4.2-2.3-5.7Z"/>
    </g>
    <g>
      <path class="st3" d="M154.9,373.2c.3-.1.6-.3.9-.4,1.4-.7,2.5-1.7,3.3-3,.8-1.3,1.2-2.8,1.2-4.4s-.4-3.3-1.2-4.6c-.8-1.3-1.9-2.4-3.3-3.1-1.4-.8-3-1.1-4.8-1.1h-6.8c-.5,0-.8.1-1.1.4s-.4.7-.4,1.1v25.5c0,.5.1.8.4,1.1s.7.4,1.1.4.8-.1,1.1-.4c.3-.3.4-.7.4-1.1v-9.6h5.2c.2,0,.4,0,.6,0l6.5,10.4c.1.3.3.5.6.6s.5.2.8.2c.7,0,1.2-.3,1.4-.8.3-.5.2-1.1-.2-1.7l-5.9-9.4ZM145.9,370.9v-11.5h5.2c1.2,0,2.3.3,3.2.8.9.5,1.7,1.2,2.2,2.1.5.9.8,1.9.8,3.1s-.3,2-.8,2.9c-.5.8-1.3,1.5-2.2,2-.9.5-2,.7-3.2.7h-5.2Z"/>
      <path class="st3" d="M186.3,359.3c.4,0,.8-.1,1.1-.4.3-.3.4-.6.4-1s-.1-.8-.4-1.1c-.3-.3-.7-.4-1.1-.4h-17c-.5,0-.8.1-1.1.4s-.4.7-.4,1.1v25.5c0,.5.1.8.4,1.1s.7.4,1.1.4h17c.4,0,.8-.1,1.1-.4.3-.3.4-.6.4-1.1s-.1-.8-.4-1c-.3-.3-.7-.4-1.1-.4h-15.4v-9.9h11.2c.5,0,.8-.1,1.1-.4.3-.3.4-.6.4-1.1s-.1-.8-.4-1.1-.7-.4-1.1-.4h-11.2v-9.8h15.4Z"/>
      <path class="st3" d="M213.5,379.6c-.4,0-.7,0-1,.3-1.1.8-2.2,1.4-3.4,1.9-1.2.4-2.4.7-3.7.7s-3-.3-4.3-.9-2.5-1.5-3.6-2.5c-1-1.1-1.8-2.3-2.4-3.7-.6-1.4-.9-2.9-.9-4.6s.3-3.1.9-4.5,1.4-2.7,2.4-3.7,2.2-1.9,3.6-2.5c1.4-.6,2.8-.9,4.3-.9s2.8.2,3.9.6c1.1.4,2.1,1,3,1.9.3.2.6.4,1,.4s.6,0,.8-.2.4-.4.4-.6c.1-.1.2-.3.3-.5,0-.2,0-.4,0-.6,0-.2-.2-.4-.4-.6-1.3-1.1-2.7-1.9-4.1-2.4s-3-.8-4.8-.8-3.9.4-5.6,1.2-3.2,1.8-4.5,3.2c-1.3,1.3-2.3,2.9-3,4.7-.7,1.8-1.1,3.7-1.1,5.7s.4,4,1.1,5.7,1.7,3.3,3,4.7,2.8,2.4,4.5,3.2c1.7.8,3.6,1.1,5.6,1.1s3.3-.3,4.8-.8c1.5-.5,2.9-1.3,4.2-2.4.1-.2.3-.4.3-.6,0-.2.1-.4.1-.6,0-.4-.1-.8-.4-1s-.6-.4-.9-.5Z"/>
      <path class="st3" d="M243.9,356.4c-.5,0-.8.1-1.1.4-.3.3-.4.7-.4,1.1v11.2h-17.6v-11.2c0-.5-.1-.8-.4-1.1-.3-.3-.7-.4-1.1-.4s-.8.1-1.1.4-.4.7-.4,1.1v25.5c0,.5.1.8.4,1.1s.7.4,1.1.4.8-.1,1.1-.4c.3-.3.4-.7.4-1.1v-11.5h17.6v11.5c0,.5.1.8.4,1.1.3.3.7.4,1.1.4s.8-.1,1.1-.4.4-.7.4-1.1v-25.5c0-.5-.1-.8-.4-1.1s-.7-.4-1.1-.4Z"/>
      <path class="st3" d="M274.9,356.4c-.5,0-.8.1-1.1.4-.3.3-.4.7-.4,1.1v21.5l-17.1-22.5c-.3-.4-.7-.6-1.2-.6s-.8.1-1.1.4-.4.7-.4,1.1v25.5c0,.5.1.8.4,1.1s.7.4,1.1.4.8-.1,1.1-.4c.3-.3.5-.7.5-1.1v-21.5l17.1,22.5c.1.2.3.3.6.4s.4.1.7.1c.4,0,.8-.1,1.1-.4.3-.3.5-.7.5-1.1v-25.5c0-.5-.2-.8-.5-1.1-.3-.3-.7-.4-1.1-.4Z"/>
      <path class="st3" d="M302.2,359.3c.4,0,.8-.1,1.1-.4.3-.3.4-.6.4-1s-.1-.8-.4-1.1c-.3-.3-.7-.4-1.1-.4h-17c-.5,0-.8.1-1.1.4s-.4.7-.4,1.1v25.5c0,.5.1.8.4,1.1s.7.4,1.1.4h17c.4,0,.8-.1,1.1-.4.3-.3.4-.6.4-1.1s-.1-.8-.4-1c-.3-.3-.7-.4-1.1-.4h-15.4v-9.9h11.2c.5,0,.8-.1,1.1-.4.3-.3.4-.6.4-1.1s-.1-.8-.4-1.1-.7-.4-1.1-.4h-11.2v-9.8h15.4Z"/>
      <path class="st3" d="M331.2,356.4c-.5,0-.8.1-1.1.4-.3.3-.4.7-.4,1.1v21.5l-17.1-22.5c-.3-.4-.7-.6-1.2-.6s-.8.1-1.1.4-.4.7-.4,1.1v25.5c0,.5.1.8.4,1.1s.7.4,1.1.4.8-.1,1.1-.4c.3-.3.5-.7.5-1.1v-21.5l17.1,22.5c.1.2.3.3.6.4s.4.1.7.1c.4,0,.8-.1,1.1-.4.3-.3.5-.7.5-1.1v-25.5c0-.5-.2-.8-.5-1.1-.3-.3-.7-.4-1.1-.4Z"/>
    </g>
  </g>
  <g>
    <path class="st0" d="M407.3,210.1l-32.6-42.9c21.1-6.3,36-25.4,36-48.6s-22.5-50.8-51.2-50.8h-68.8c9.4,0,16.9,7.6,16.9,16.9v16.9s51.8,0,51.8,0c9.9,0,17.3,7.3,17.3,16.9s-7.4,16.9-17.3,16.9h-17.2c-6.4,0-12.3,3.6-15.2,9.4-2.9,5.8-2.2,12.7,1.7,17.8l51.5,67.9c3.3,4.4,8.4,6.7,13.5,6.7s7.2-1.1,10.2-3.4c7.5-5.7,8.9-16.3,3.3-23.7Z"/>
    <path class="st1" d="M290.8,101.5c-9.4,0-16.9-7.6-16.9-16.9h0s0,50.8,0,50.8h-69.1v-50.8c0-9.4-7.6-16.9-16.9-16.9s-16.9,7.6-16.9,16.9v67.7s0,0,0,0h0s0,17.6,0,17.6l30.5,40.1c2.1,2.7,3.2,5.9,3.4,9.1v-49.9h69.1v51.1c0,9.4,7.6,16.9,16.9,16.9s16.9-7.6,16.9-16.9v-118.8s-16.9,0-16.9,0Z"/>
    <path class="st0" d="M170.8,169.9l-72.6-95.6c0,0-.1-.2-.2-.2-4.5-5.7-12.3-7.9-19.1-5.4-6.3,2.3-11,8.8-11.1,15.6,0,.1,0,.2,0,.3v135.7c0,9.4,7.6,16.9,16.9,16.9s16.9-7.6,16.9-16.9v-85.4s72,94.8,72,94.8c-1.8-2.7-2.8-5.9-2.8-9.4v-50.4Z"/>
    <path class="st2" d="M204.7,220.3v-1.1c-.2-3.2-1.3-6.4-3.4-9.1l-30.5-40.1v50.4c0,3.5,1,6.7,2.8,9.4l.6.9c2.1,2.7,4.8,4.7,7.9,5.7,0,0,0,0,0,0,1.8.6,3.7,1,5.6,1,.5,0,1.1,0,1.6,0,0,0,.2,0,.2,0,.5,0,.9-.1,1.4-.2,0,0,.1,0,.2,0,7.7-1.6,13.4-8.4,13.4-16.6Z"/>
    <path class="st2" d="M290.8,67.6h0c-9.4,0-16.9,7.6-16.9,16.9s7.6,16.9,16.9,16.9h16.9s0-16.9,0-16.9c0-9.4-7.6-16.9-16.9-16.9Z"/>
  </g>
</svg>